<?xml version="1.0" encoding="UTF-8"?>
<svg width="581px" height="317px" viewBox="0 0 581 317" version="1.1" xmlns="http://www.w3.org/2000/svg" xmlns:xlink="http://www.w3.org/1999/xlink">
    <!-- Generator: Sketch 57 (83077) - https://sketch.com -->
    <title>Group 19</title>
    <desc>Created with Sketch.</desc>
    <defs>
        <polygon id="path-1" points="0 389 608 389 608 0 0 0"></polygon>
    </defs>
    <g id="UI" stroke="none" stroke-width="1" fill="none" fill-rule="evenodd">
        <g id="Artboard" transform="translate(-19.000000, -44.000000)">
            <g id="Group-19">
                <path d="M563.9987,124.5916 C564.0027,124.4756 564.0057,124.3596 564.0077,124.2426 C564.0897,119.2016 559.2317,114.6016 554.8377,119.0276 C549.9667,123.9326 548.1467,131.9146 546.2697,138.3186 C543.7147,147.0236 541.2877,155.7656 538.8327,164.4996 C537.7317,168.4216 540.8197,170.8986 544.0517,168.2326 C546.4497,166.2526 548.0197,163.1696 549.3627,160.4196 C551.9387,155.1446 554.6817,150.0156 557.2397,144.7396 C560.2707,138.4896 563.7757,131.6746 563.9987,124.5916 L563.9987,124.5916 Z M168.7597,235.7376 C175.0047,235.5236 180.3967,231.9516 184.3017,227.2676 C188.2297,222.5536 192.7417,214.9946 192.0037,208.6566 C191.2747,202.3936 184.8727,197.9366 178.8317,200.2556 C173.6687,202.2366 169.7527,207.8956 167.3577,212.6476 C164.6897,217.9416 163.3487,223.7976 162.6567,229.6536 C162.0937,234.4366 163.6227,235.8246 168.4267,235.7476 C168.5387,235.7446 168.6487,235.7416 168.7597,235.7376 L168.7597,235.7376 Z M414.7297,287.0006 C409.3477,284.3996 407.1117,279.4806 406.1637,274.1316 C404.9327,267.1746 404.5287,259.9826 404.2857,252.9316 L395.3937,254.9036 C390.6507,255.9566 385.9007,257.1306 381.2267,255.0946 C377.8337,253.6176 375.0427,250.8116 373.5857,247.4116 C373.2317,246.5866 372.9257,245.6876 372.2357,245.1116 C371.0077,244.0826 369.8987,245.0156 369.3487,246.1546 C367.0927,250.8246 365.0747,255.6126 362.7327,260.2366 C359.1447,267.3276 355.1397,274.1986 349.2027,279.6276 C347.0177,281.6266 344.5107,283.4476 341.8497,284.7226 C334.9107,288.0446 328.0037,285.7786 323.8157,279.3206 C318.4267,271.0116 318.5397,258.8546 317.2137,249.3376 C308.5407,252.4856 298.9707,256.3186 289.5537,255.6376 C283.9167,255.2306 279.0237,252.2976 276.6697,247.0716 C276.2397,246.1156 275.8297,245.0546 274.9267,244.5216 C273.1827,243.4896 272.2547,245.7696 271.5997,246.9256 C267.3367,254.4266 263.4667,262.1526 259.4987,269.8176 C255.6187,277.3066 250.2697,283.1666 241.8707,285.4456 C234.7417,287.3816 229.0397,284.9286 226.7607,277.9296 C224.7277,271.6846 224.1027,264.9806 222.8647,258.4776 C222.7677,257.9626 222.7407,257.4336 223.2837,257.6476 C219.2277,261.2216 215.3077,264.9646 211.0887,268.3366 C199.6187,277.5066 186.8317,283.8496 171.9577,284.8216 C159.9687,285.6076 149.8317,281.8856 143.2957,271.0726 C140.2367,266.0146 138.6467,260.4096 137.8087,254.5986 C134.9407,234.7456 138.3267,216.1036 149.1657,199.1116 C155.5027,189.1776 164.0677,182.0116 175.9977,179.5426 C188.7047,176.9126 202.5337,183.0696 207.7787,193.9246 C211.6817,201.9986 210.6867,210.0816 207.2047,217.9566 C201.7417,230.3086 192.2617,238.9276 180.6397,245.2486 C175.8847,247.8336 170.6947,249.6156 165.6237,251.7996 C166.4897,259.7526 171.3597,265.0176 179.4327,265.2416 C194.0377,265.6496 206.3317,260.3696 215.4597,248.7066 C218.9887,244.1956 220.3907,238.8776 220.1987,233.0906 C219.9417,225.2926 219.6957,217.4936 219.5237,209.6946 C219.3847,203.4166 219.1377,197.2246 219.8607,190.9726 C220.1427,188.5426 220.7277,186.0836 222.1057,184.0646 C225.3877,179.2596 234.2147,179.1476 239.4427,178.8796 C244.7967,178.6056 246.7917,180.7856 246.7487,186.3556 C246.6677,196.7396 246.4807,207.1236 246.2687,217.5056 C246.0127,229.8776 245.6867,242.2486 245.3907,254.6186 C245.6487,254.6896 245.9087,254.7596 246.1677,254.8286 C246.6137,253.9286 247.1187,253.0506 247.4987,252.1226 C255.8187,231.7376 264.2777,211.4076 272.3797,190.9376 C276.9987,179.2696 280.6227,176.8316 293.0287,178.5936 C293.7507,178.6956 294.4827,178.7306 295.1997,178.8586 C299.6667,179.6596 301.5517,182.9526 299.7347,187.0966 C296.4827,194.5126 293.1137,201.8756 289.7787,209.2546 C285.6057,218.4866 281.6277,231.4036 289.0857,240.2086 C292.6867,244.4586 298.8037,246.2606 304.2327,245.0146 C310.9987,243.4616 316.8587,237.5946 316.8257,230.4876 C316.7727,219.1946 316.5107,207.9006 316.4237,196.6056 C316.4047,194.0646 316.7027,191.5176 316.9267,188.9796 C317.2667,185.1296 319.3237,182.3746 322.5817,180.4566 C326.3487,178.2376 330.4467,177.6006 334.7057,178.3006 C340.3807,179.2336 343.8617,182.7606 344.1017,188.6736 C344.3437,194.6536 343.8737,200.6646 343.6697,206.6586 C343.2847,217.9446 342.8187,229.2256 342.4857,240.5116 C342.3477,245.2206 342.4627,249.9376 343.0427,254.8346 C344.5007,251.5836 346.0667,248.3756 347.4007,245.0726 C354.9017,226.5166 362.3467,207.9376 369.8157,189.3676 C370.2897,188.1876 370.8087,187.0256 371.3217,185.8616 C373.7357,180.4016 377.9777,177.8556 383.8927,178.0856 C385.7977,178.1596 387.7107,178.3076 389.5957,178.5986 C394.9157,179.4186 397.3647,182.1696 396.3427,187.4416 C394.7657,195.5756 392.0537,203.4496 388.7337,211.0286 C385.7567,217.8296 382.5217,225.0106 383.2317,232.6236 C384.0287,241.1686 392.0407,247.9386 400.7087,245.0716 C404.7207,243.7456 406.5587,240.2116 407.1157,236.2606 C409.1537,221.8416 411.3467,207.4446 413.6547,193.0666 C414.0507,190.6056 415.0507,188.1426 416.2337,185.9276 C419.2317,180.3186 426.2117,177.7766 432.2277,179.8346 C436.0647,181.1476 438.3137,184.3046 438.1657,189.2876 C438.0067,194.6486 437.4257,200.0056 436.8347,205.3426 C436.0577,212.3856 435.0927,219.4056 434.2067,226.4376 C434.4277,226.5906 434.6447,226.7426 434.8647,226.8976 C435.6037,225.9666 436.5367,225.1306 437.0547,224.0886 C441.8697,214.3906 446.4357,204.5646 451.4627,194.9796 C453.5497,191.0016 456.2687,187.2426 459.2567,183.8796 C462.6367,180.0756 467.2937,178.7176 472.4107,179.2276 C478.4097,179.8256 483.3597,184.9456 483.5227,191.8066 C483.6507,197.2136 483.0337,202.6936 482.1987,208.0556 C480.1857,220.9976 476.9717,233.7916 477.5607,247.0286 C477.6937,250.0036 477.9447,253.0706 478.8107,255.8896 C480.1447,260.2396 483.0827,261.4536 487.3467,259.7986 C499.7307,254.9846 507.2647,245.8436 509.7487,232.9636 C511.2607,225.1286 511.7387,217.0836 512.4777,209.1136 C513.0497,202.9506 513.3527,196.7596 513.6857,190.5756 C513.9457,185.7026 512.7697,184.8006 507.7797,184.2086 C502.3067,183.5586 496.8767,182.4706 491.4717,181.3696 C489.8177,181.0326 488.2017,180.1896 486.7447,179.2916 C483.2247,177.1216 483.1287,172.8666 486.7677,170.9676 C489.0207,169.7906 491.7397,169.0416 494.2787,168.9556 C501.9007,168.6996 509.5377,168.8636 516.7167,168.8636 C519.0947,159.8366 520.9237,151.4826 523.5117,143.3716 C528.1527,128.8236 534.4537,115.0076 543.7837,102.7876 C545.5787,100.4366 547.8697,98.3416 550.2757,96.6036 C557.6557,91.2756 566.5357,92.3366 572.6867,99.0546 C577.7707,104.6106 579.4027,111.4806 579.7457,118.6956 C580.6097,136.8876 575.6657,153.4256 565.1737,168.3076 C564.6487,169.0506 564.1117,169.7836 563.1377,171.1386 C565.7047,171.1386 567.8067,171.1006 569.9047,171.1456 C576.0027,171.2776 582.1007,171.4246 588.1967,171.5996 C591.8807,171.7056 597.2477,173.0916 598.6027,177.0246 C601.0097,184.0126 592.6117,188.7486 586.9977,189.6336 C583.4307,190.1966 579.7527,190.4076 576.1417,190.2846 C568.9587,190.0396 561.7897,189.4426 554.6127,189.0156 C551.2167,188.8136 548.2707,190.0496 546.0327,192.4876 C544.1447,194.5436 542.3197,196.7926 541.0417,199.2546 C535.2687,210.3816 533.6197,222.3816 534.1797,234.7506 C534.4557,240.8796 535.4787,246.8906 538.3337,252.4266 C541.7997,259.1476 546.9687,261.8446 554.3017,260.2396 C565.4547,257.8026 575.0687,252.1536 584.0467,245.2786 C586.1307,243.6816 588.3157,242.1336 590.6587,240.9786 C595.0117,238.8316 597.4237,240.3156 597.8397,245.1826 C598.3307,250.9046 596.1717,255.8156 592.4537,259.8976 C582.5447,270.7786 568.8517,280.5896 553.9137,283.0456 C538.0587,285.6526 522.2787,277.5466 517.2297,261.8836 C517.6107,263.0676 510.6057,268.3726 509.6097,269.1546 C506.6047,271.5206 503.3617,273.5656 499.9857,275.3556 C492.1237,279.5236 476.7567,287.8966 467.6447,284.2776 C462.3447,282.1716 460.0977,276.0766 459.0357,270.9186 C456.8857,260.4496 457.7257,249.8816 458.1347,239.3366 C458.3447,233.9236 458.7557,228.5176 459.0757,223.1086 C457.9847,223.9206 457.2997,224.8426 456.7817,225.8516 C449.3077,240.4086 441.6307,254.8706 434.4897,269.5936 C430.8417,277.1156 426.4407,283.5476 418.5577,287.0006 L414.7297,287.0006 Z" id="Fill-1" fill="#F53956"></path>
                <polygon id="Fill-3" fill="#3A3A3A" points="146.6735 301.1833 175.2935 301.1833 175.2935 309.6013 165.6125 309.6013 165.6125 360.1063 156.3535 360.1063 156.3535 309.6013 146.6735 309.6013"></polygon>
                <mask id="mask-2" fill="white">
                    <use xlink:href="#path-1"></use>
                </mask>
                <g id="Clip-6"></g>
                <polygon id="Fill-5" fill="#3A3A3A" mask="url(#mask-2)" points="179.333 360.107 188.592 360.107 188.592 301.184 179.333 301.184"></polygon>
                <path d="M222.1759,338.1365 L222.1759,345.9645 C222.1759,350.7365 221.0119,354.3985 218.6839,356.9495 C216.3539,359.5035 212.9169,360.7815 208.3709,360.7815 C203.8259,360.7815 200.3889,359.5035 198.0609,356.9495 C195.7309,354.3985 194.5669,350.7365 194.5669,345.9645 L194.5669,315.3245 C194.5669,310.5555 195.7309,306.8945 198.0609,304.3395 C200.3889,301.7865 203.8259,300.5105 208.3709,300.5105 C212.9169,300.5105 216.3539,301.7865 218.6839,304.3395 C221.0119,306.8945 222.1759,310.5555 222.1759,315.3245 L222.1759,321.0485 L213.4219,321.0485 L213.4219,314.7375 C213.4219,312.6035 212.9869,311.1035 212.1169,310.2335 C211.2459,309.3645 210.0829,308.9275 208.6239,308.9275 C207.1639,308.9275 205.9999,309.3645 205.1309,310.2335 C204.2599,311.1035 203.8259,312.6035 203.8259,314.7375 L203.8259,346.5545 C203.8259,348.6875 204.2599,350.1735 205.1309,351.0155 C205.9999,351.8585 207.1639,352.2795 208.6239,352.2795 C210.0829,352.2795 211.2459,351.8585 212.1169,351.0155 C212.9869,350.1735 213.4219,348.6875 213.4219,346.5545 L213.4219,338.1365 L222.1759,338.1365 Z" id="Fill-7" fill="#3A3A3A" mask="url(#mask-2)"></path>
                <polygon id="Fill-8" fill="#3A3A3A" mask="url(#mask-2)" points="239.9366 336.6208 237.0746 342.0098 237.0746 360.1058 227.8156 360.1058 227.8156 301.1828 237.0746 301.1828 237.0746 326.8568 249.1956 301.1828 258.4556 301.1828 245.5766 327.4458 258.4556 360.1058 248.9436 360.1058"></polygon>
                <polygon id="Fill-9" fill="#3A3A3A" mask="url(#mask-2)" points="271.922 326.0154 284.633 326.0154 284.633 334.4324 271.922 334.4324 271.922 351.6884 287.915 351.6884 287.915 360.1064 262.662 360.1064 262.662 301.1834 287.915 301.1834 287.915 309.6014 271.922 309.6014"></polygon>
                <polygon id="Fill-10" fill="#3A3A3A" mask="url(#mask-2)" points="290.9454 301.1833 319.5644 301.1833 319.5644 309.6013 309.8844 309.6013 309.8844 360.1063 300.6254 360.1063 300.6254 309.6013 290.9454 309.6013"></polygon>
                <polygon id="Fill-11" fill="#3A3A3A" mask="url(#mask-2)" points="323.604 360.107 332.864 360.107 332.864 301.184 323.604 301.184"></polygon>
                <polygon id="Fill-12" fill="#3A3A3A" mask="url(#mask-2)" points="347.8453 317.4294 347.8453 360.1074 339.5123 360.1074 339.5123 301.1834 351.1283 301.1834 360.6403 336.4524 360.6403 301.1834 368.8893 301.1834 368.8893 360.1074 359.3773 360.1074"></polygon>
                <path d="M389.4264,327.2781 L402.3904,327.2781 L402.3904,345.9651 C402.3904,350.7351 401.2254,354.3971 398.8974,356.9501 C396.5684,359.5051 393.1304,360.7801 388.5844,360.7801 C384.0394,360.7801 380.6024,359.5051 378.2744,356.9501 C375.9454,354.3971 374.7804,350.7351 374.7804,345.9651 L374.7804,315.3251 C374.7804,310.5551 375.9454,306.8941 378.2744,304.3411 C380.6024,301.7871 384.0394,300.5101 388.5844,300.5101 C393.1304,300.5101 396.5684,301.7871 398.8974,304.3411 C401.2254,306.8941 402.3904,310.5551 402.3904,315.3251 L402.3904,321.0491 L393.6354,321.0491 L393.6354,314.7361 C393.6354,312.6031 393.1994,311.1031 392.3304,310.2321 C391.4594,309.3631 390.2954,308.9271 388.8374,308.9271 C387.3774,308.9271 386.2134,309.3631 385.3444,310.2321 C384.4744,311.1031 384.0394,312.6031 384.0394,314.7361 L384.0394,346.5541 C384.0394,348.6871 384.4744,350.1741 385.3444,351.0151 C386.2134,351.8571 387.3774,352.2781 388.8374,352.2781 C390.2954,352.2781 391.4594,351.8571 392.3304,351.0151 C393.1994,350.1741 393.6354,348.6871 393.6354,346.5541 L393.6354,335.6951 L389.4264,335.6951 L389.4264,327.2781 Z" id="Fill-13" fill="#3A3A3A" mask="url(#mask-2)"></path>
                <path d="M151.3151,133.6599 L143.7911,139.8069 C140.6941,142.3359 140.2351,146.8969 142.7651,149.9929 C144.1961,151.7449 146.2761,152.6529 148.3751,152.6529 C149.9851,152.6529 151.6071,152.1179 152.9511,151.0199 L160.4761,144.8719 C163.5711,142.3439 164.0311,137.7829 161.5021,134.6859 C158.9731,131.5909 154.4121,131.1299 151.3151,133.6599" id="Fill-14" fill="#F53956" mask="url(#mask-2)"></path>
                <path d="M181.4113,109.0715 L173.8873,115.2185 C170.7913,117.7475 170.3313,122.3085 172.8613,125.4055 C174.2923,127.1565 176.3733,128.0645 178.4723,128.0645 C180.0813,128.0645 181.7033,127.5295 183.0473,126.4315 L190.5723,120.2845 C193.6683,117.7555 194.1273,113.1945 191.5983,110.0975 C189.0683,107.0025 184.5093,106.5415 181.4113,109.0715" id="Fill-15" fill="#F53956" mask="url(#mask-2)"></path>
                <path d="M91.1217,182.8376 L83.5977,188.9846 C80.5017,191.5136 80.0417,196.0746 82.5717,199.1706 C84.0027,200.9226 86.0837,201.8306 88.1827,201.8306 C89.7917,201.8306 91.4137,201.2956 92.7577,200.1966 L100.2827,194.0496 C103.3787,191.5206 103.8377,186.9606 101.3087,183.8636 C98.7797,180.7686 94.2197,180.3086 91.1217,182.8376" id="Fill-16" fill="#F53956" mask="url(#mask-2)"></path>
                <path d="M121.2184,158.2488 L113.6944,164.3958 C110.5974,166.9248 110.1384,171.4858 112.6684,174.5818 C114.0994,176.3338 116.1794,177.2418 118.2794,177.2418 C119.8884,177.2418 121.5104,176.7068 122.8544,175.6078 L130.3794,169.4608 C133.4754,166.9318 133.9344,162.3718 131.4054,159.2748 C128.8764,156.1798 124.3164,155.7198 121.2184,158.2488" id="Fill-17" fill="#F53956" mask="url(#mask-2)"></path>
                <path d="M289.3302,169.9958 L187.9552,45.2668 C184.9842,47.6948 182.3222,48.5428 180.0542,48.5428 C174.8052,48.5428 171.6672,43.9998 171.6672,43.9998 L123.8152,83.0948 C123.8152,83.0948 129.5052,102.9848 108.3942,120.2318 C98.9702,127.9318 90.3732,130.0638 83.7452,130.0638 C75.5262,130.0638 70.3342,126.7878 70.3342,126.7878 L22.4832,165.8818 C22.4832,165.8818 30.3432,174.0668 19.0842,183.2658 L135.1822,325.7668 C135.7902,326.5158 137.0002,326.0848 137.0002,325.1208 L137.0002,307.7378 C137.0002,306.6138 136.6152,305.5218 135.9082,304.6478 L67.8902,220.5138 L69.9522,218.8288 C73.0192,216.3218 73.7652,211.7708 71.3522,208.6288 C68.8542,205.3748 64.1802,204.8478 61.0252,207.4268 L58.7882,209.2548 L37.4552,182.8678 C38.8832,179.6618 39.4392,176.6878 39.5862,174.2528 C39.6612,173.0208 39.6372,171.8178 39.5312,170.6498 L73.0672,143.2518 C76.0952,143.9998 79.6872,144.5428 83.7452,144.5428 C95.3752,144.5428 107.0662,140.0138 117.5552,131.4448 C134.3822,117.6968 139.0542,101.2678 139.0482,89.3458 L172.6882,61.8618 C174.8742,62.5748 177.3312,63.0208 180.0542,63.0208 C181.0912,63.0208 182.2662,62.9498 183.5482,62.7568 L205.3072,89.5498 L204.1812,90.4698 C201.2992,92.8238 200.4452,97.0078 202.4622,100.1358 C203.8792,102.3318 206.2132,103.4758 208.5682,103.4758 C210.1792,103.4758 211.7992,102.9408 213.1442,101.8428 L214.4342,100.7888 L271.4042,170.9428 C271.9472,171.6118 272.7632,171.9998 273.6242,171.9998 L288.3762,171.9998 C289.4122,171.9998 289.9832,170.7988 289.3302,169.9958" id="Fill-18" fill="#F53956" mask="url(#mask-2)"></path>
            </g>
        </g>
    </g>
</svg>