<?xml version="1.0" encoding="UTF-8"?>
<svg width="1116px" height="352px" viewBox="0 0 1116 352" version="1.1" xmlns="http://www.w3.org/2000/svg" xmlns:xlink="http://www.w3.org/1999/xlink">
    <title>GeoTix Logo</title>
    <defs>
        <polygon id="path-1" points="0.187826087 0.0235957447 214.190609 0.0235957447 214.190609 291.81234 0.187826087 291.81234"></polygon>
    </defs>
    <g id="UI" stroke="none" stroke-width="1" fill="none" fill-rule="evenodd">
        <g id="analytics_service_theme-logo_white_green_rgb">
            <g id="Group-3" transform="translate(0.000000, 60.000000)">
                <mask id="mask-2" fill="white">
                    <use xlink:href="#path-1"></use>
                </mask>
                <g id="Clip-2"></g>
                <path d="M106.56,155.268106 C135.072,155.268106 155.028522,134.61617 155.028522,106.132574 C155.028522,74.4431277 133.290783,55.2111489 106.91687,55.2111489 C81.6135652,55.2111489 59.162087,75.5096596 59.162087,104.349809 C59.162087,136.042383 81.9704348,155.268106 106.56,155.268106 Z M214.190609,180.192426 C214.190609,209.745681 212.049391,228.621106 202.429565,245.354085 C187.102957,270.281532 151.109217,292 102.283826,292 C33.501913,292 7.48486957,250.696128 3.56556522,222.565957 L71.9906087,222.565957 C80.546087,242.151362 102.640696,242.151362 106.56,242.151362 C114.04487,242.151362 154.671652,241.438255 154.671652,188.383766 L154.671652,182.331745 L153.961043,182.331745 C147.900522,193.725809 130.795826,210.458787 99.7888696,210.458787 C45.9735652,210.458787 0,169.868021 0,106.489128 C0,38.8347234 48.4716522,0.0235957447 99.7888696,0.0235957447 C121.886609,0.0235957447 143.624348,7.85838298 154.317913,24.9479149 L155.028522,24.9479149 L155.028522,6.43217021 L214.190609,6.43217021 L214.190609,180.192426 Z" id="Fill-1" fill="#1A237E" mask="url(#mask-2)"></path>
            </g>
            <path d="M386.878019,142.756944 C384.384622,130.997849 372.63093,108.897887 342,108.897887 C311.36907,108.897887 299.615378,130.997849 297.125109,142.756944 L386.878019,142.756944 Z M439.233102,201.568075 C429.61616,223.664906 415.725717,240.774452 398.98523,252.179773 C382.60139,263.942 363.013988,270 342.713293,270 C286.081581,270 238,224.021811 238,165.21068 C238,109.968603 281.451433,59 341.643353,59 C401.835274,59 446,106.759585 446,166.995207 C446,174.837735 445.289835,178.043623 444.573414,182.677132 L296.411816,182.677132 C299.972024,206.201585 319.562555,220.102113 342.713293,220.102113 C360.877237,220.102113 370.494179,211.90268 378.684535,201.568075 L439.233102,201.568075 Z" id="Fill-4" fill="#1A237E"></path>
            <path d="M569.5,214.827673 C595.145726,214.827673 616.871225,193.830487 616.871225,164.998437 C616.871225,136.166386 595.145726,115.166074 569.5,115.166074 C543.854274,115.166074 522.125646,136.166386 522.125646,164.998437 C522.125646,193.830487 543.854274,214.827673 569.5,214.827673 Z M569.5,60 C641.450073,60 676,116.591731 676,164.998437 C676,213.405142 641.450073,270 569.5,270 C497.549927,270 463,213.405142 463,164.998437 C463,116.591731 497.549927,60 569.5,60 Z" id="Fill-5" fill="#1A237E"></path>
            <polyline id="Fill-6" fill="#1A237E" points="773.465172 66.0015668 802 66.0015668 802 110.951072 773.465172 110.951072 773.465172 264 714.25235 264 714.25235 110.951072 685 110.951072 685 66.0015668 714.25235 66.0015668 714.25235 0 773.465172 0 773.465172 66.0015668"></polyline>
            <path d="M820,264 L879,264 L879,66.0015668 L820,66.0015668 L820,264 Z M820,44.9526387 L879,44.9526387 L879,0 L820,0 L820,44.9526387 Z" id="Fill-7" fill="#1A237E"></path>
            <polyline id="Fill-8" fill="#BFD245" points="896 264 965.435806 264 1006 207.421725 971.283655 159 896 264"></polyline>
            <polyline id="Fill-9" fill="#D4DE6C" points="971.258744 159 905 66 974.488748 66 1006 110.23592 971.258744 159"></polyline>
            <polyline id="Fill-10" fill="#D6E283" points="1006 207 1041 158 1006 207"></polyline>
            <polyline id="Fill-11" fill="#9DC649" points="1005.99686 110 971 158.498438 1005.99686 207 1041 158.498438 1005.99686 110"></polyline>
            <polyline id="Fill-12" fill="#1A237E" points="1107 66 1037.51437 66 1006 110.23592 1040.74126 159 1107 66"></polyline>
            <polyline id="Fill-13" fill="#1A237E" points="1116 264 1040.71536 159 1006 207.421725 1046.56305 264 1116 264"></polyline>
        </g>
    </g>
</svg>